# Exported from Godot Engine
o mattress
v -0.095000 0.340000 0.035000
vt 0.003906 0.140625
vn 0.000000 1.000000 -0.000015
v -0.095000 0.340000 0.805000
vt 0.003906 0.742188
vn 0.000000 1.000000 -0.000015
v -1.245000 0.340000 0.035000
vt 0.453125 0.140625
vn 0.000000 1.000000 -0.000015
v -1.245000 0.340000 0.805000
vt 0.453125 0.742188
vn 0.000000 1.000000 -0.000015
v -0.070000 0.315000 0.805000
vt 0.464844 0.840244
vn 1.000000 0.000000 -0.000015
v -0.070000 0.315000 0.035000
vt 0.765625 0.840244
vn 1.000000 0.000000 -0.000015
v -0.070000 0.245000 0.805000
vt 0.464844 0.785556
vn 1.000000 0.000000 -0.000015
v -0.070000 0.245000 0.035000
vt 0.765625 0.785556
vn 1.000000 0.000000 -0.000015
v -1.245000 0.315000 0.830000
vt 0.003906 0.840244
vn -0.000015 -0.000015 1.000000
v -0.095000 0.315000 0.830000
vt 0.453125 0.840244
vn -0.000015 -0.000015 1.000000
v -1.245000 0.245000 0.830000
vt 0.003906 0.785556
vn -0.000015 -0.000015 1.000000
v -0.095000 0.245000 0.830000
vt 0.453125 0.785556
vn -0.000015 -0.000015 1.000000
v -1.245000 0.315000 0.010000
vt 0.453125 0.964844
vn 0.000000 0.000000 -1.000000
v -1.245000 0.245000 0.010000
vt 0.453125 0.910156
vn 0.000000 0.000000 -1.000000
v -0.095000 0.315000 0.010000
vt 0.003906 0.964844
vn 0.000000 0.000000 -1.000000
v -0.095000 0.245000 0.010000
vt 0.003906 0.910156
vn 0.000000 0.000000 -1.000000
v -0.095000 0.220000 0.805000
vt 0.193588 0.288872
vn 0.000000 -1.000000 -0.000015
v -0.095000 0.220000 0.035000
vt 0.386959 0.288872
vn 0.000000 -1.000000 -0.000015
v -1.245000 0.220000 0.805000
vt 0.193588 0.000073
vn 0.000000 -1.000000 -0.000015
v -1.245000 0.220000 0.035000
vt 0.386959 0.000073
vn 0.000000 -1.000000 -0.000015
v -1.245000 0.220000 0.035000
vt 0.458984 0.886719
vn -0.577377 -0.577377 -0.577297
v -1.245000 0.245000 0.010000
vt 0.453125 0.906250
vn -0.577377 -0.577377 -0.577297
v -1.270000 0.245000 0.035000
vt 0.464844 0.906250
vn -0.577377 -0.577377 -0.577297
v -1.245000 0.340000 0.035000
vt 0.464844 0.968750
vn -0.577430 0.577377 -0.577244
v -1.270000 0.315000 0.035000
vt 0.453125 0.968750
vn -0.577430 0.577377 -0.577244
v -1.245000 0.315000 0.010000
vt 0.458984 0.988281
vn -0.577430 0.577377 -0.577244
v -0.095000 0.245000 0.010000
vt 0.777344 0.781250
vn 0.577377 -0.577430 -0.577244
v -0.095000 0.220000 0.035000
vt 0.771484 0.761719
vn 0.577377 -0.577430 -0.577244
v -0.070000 0.245000 0.035000
vt 0.765625 0.781250
vn 0.577377 -0.577430 -0.577244
v -0.095000 0.340000 0.035000
vt 0.771484 0.863281
vn 0.577430 0.577430 -0.577192
v -0.095000 0.315000 0.010000
vt 0.777344 0.843750
vn 0.577430 0.577430 -0.577192
v -0.070000 0.315000 0.035000
vt 0.765625 0.843750
vn 0.577430 0.577430 -0.577192
v -1.245000 0.245000 0.830000
vt 0.771484 0.886719
vn -0.577403 -0.577297 0.577350
v -1.245000 0.220000 0.805000
vt 0.765625 0.906250
vn -0.577403 -0.577297 0.577350
v -1.270000 0.245000 0.805000
vt 0.777344 0.906250
vn -0.577403 -0.577297 0.577350
v -1.245000 0.340000 0.805000
vt 0.777344 0.968750
vn -0.577403 0.577245 0.577403
v -1.245000 0.315000 0.830000
vt 0.765625 0.968750
vn -0.577403 0.577245 0.577403
v -1.270000 0.315000 0.805000
vt 0.771484 0.988281
vn -0.577403 0.577245 0.577403
v -0.070000 0.245000 0.805000
vt 0.453125 0.781250
vn 0.577298 -0.577350 0.577403
v -0.095000 0.220000 0.805000
vt 0.464844 0.781250
vn 0.577298 -0.577350 0.577403
v -0.095000 0.245000 0.830000
vt 0.458984 0.761719
vn 0.577298 -0.577350 0.577403
v -0.095000 0.340000 0.805000
vt 0.464844 0.843750
vn 0.577298 0.577298 0.577456
v -0.070000 0.315000 0.805000
vt 0.453125 0.843750
vn 0.577298 0.577298 0.577456
v -0.095000 0.315000 0.830000
vt 0.458984 0.863281
vn 0.577298 0.577298 0.577456
v -0.070000 0.245000 0.035000
vt 0.765625 0.785556
vn 0.707118 0.000000 -0.707096
v -0.070000 0.315000 0.035000
vt 0.765625 0.840244
vn 0.707118 0.000000 -0.707096
v -0.095000 0.245000 0.010000
vt 0.777344 0.785556
vn 0.707118 0.000000 -0.707096
v -0.095000 0.315000 0.010000
vt 0.777344 0.840244
vn 0.707118 0.000000 -0.707096
v -0.095000 0.245000 0.830000
vt 0.453125 0.785556
vn 0.707107 -0.000022 0.707107
v -0.095000 0.315000 0.830000
vt 0.453125 0.840244
vn 0.707107 -0.000022 0.707107
v -0.070000 0.245000 0.805000
vt 0.464844 0.785556
vn 0.707107 -0.000022 0.707107
v -0.070000 0.315000 0.805000
vt 0.464844 0.840244
vn 0.707107 -0.000022 0.707107
v -1.270000 0.245000 0.805000
vt 0.765625 0.910156
vn -0.707150 -0.000022 0.707064
v -1.270000 0.315000 0.805000
vt 0.765625 0.964844
vn -0.707150 -0.000022 0.707064
v -1.245000 0.245000 0.830000
vt 0.777344 0.910156
vn -0.707150 -0.000022 0.707064
v -1.245000 0.315000 0.830000
vt 0.777344 0.964844
vn -0.707150 -0.000022 0.707064
v -1.270000 0.315000 0.035000
vt 0.464844 0.964844
vn -1.000000 0.000000 -0.000015
v -1.270000 0.315000 0.805000
vt 0.765625 0.964844
vn -1.000000 0.000000 -0.000015
v -1.270000 0.245000 0.035000
vt 0.464844 0.910156
vn -1.000000 0.000000 -0.000015
v -1.270000 0.245000 0.805000
vt 0.765625 0.910156
vn -1.000000 0.000000 -0.000015
v -1.245000 0.220000 0.035000
vt 0.453125 0.882812
vn 0.000000 -0.707118 -0.707096
v -0.095000 0.220000 0.035000
vt 0.003906 0.882812
vn 0.000000 -0.707118 -0.707096
v -1.245000 0.245000 0.010000
vt 0.453125 0.910156
vn 0.000000 -0.707118 -0.707096
v -0.095000 0.245000 0.010000
vt 0.003906 0.910156
vn 0.000000 -0.707118 -0.707096
v -0.095000 0.340000 0.035000
vt 0.003906 0.992188
vn 0.000000 0.707118 -0.707096
v -1.245000 0.340000 0.035000
vt 0.453125 0.992188
vn 0.000000 0.707118 -0.707096
v -0.095000 0.315000 0.010000
vt 0.003906 0.964844
vn 0.000000 0.707118 -0.707096
v -1.245000 0.315000 0.010000
vt 0.453125 0.964844
vn 0.000000 0.707118 -0.707096
v -0.095000 0.220000 0.035000
vt 0.765625 0.757812
vn 0.707085 -0.707128 -0.000022
v -0.095000 0.220000 0.805000
vt 0.464844 0.757812
vn 0.707085 -0.707128 -0.000022
v -0.070000 0.245000 0.035000
vt 0.765625 0.785556
vn 0.707085 -0.707128 -0.000022
v -0.070000 0.245000 0.805000
vt 0.464844 0.785556
vn 0.707085 -0.707128 -0.000022
v -0.095000 0.340000 0.805000
vt 0.464844 0.867188
vn 0.707107 0.707107 0.000022
v -0.095000 0.340000 0.035000
vt 0.765625 0.867188
vn 0.707107 0.707107 0.000022
v -0.070000 0.315000 0.805000
vt 0.464844 0.840244
vn 0.707107 0.707107 0.000022
v -0.070000 0.315000 0.035000
vt 0.765625 0.840244
vn 0.707107 0.707107 0.000022
v -0.095000 0.220000 0.805000
vt 0.453125 0.757812
vn -0.000022 -0.707150 0.707064
v -1.245000 0.220000 0.805000
vt 0.003906 0.757812
vn -0.000022 -0.707150 0.707064
v -0.095000 0.245000 0.830000
vt 0.453125 0.785556
vn -0.000022 -0.707150 0.707064
v -1.245000 0.245000 0.830000
vt 0.003906 0.785556
vn -0.000022 -0.707150 0.707064
v -1.245000 0.340000 0.805000
vt 0.003906 0.867188
vn -0.000022 0.707107 0.707107
v -0.095000 0.340000 0.805000
vt 0.453125 0.867188
vn -0.000022 0.707107 0.707107
v -1.245000 0.315000 0.830000
vt 0.003906 0.840244
vn -0.000022 0.707107 0.707107
v -0.095000 0.315000 0.830000
vt 0.453125 0.840244
vn -0.000022 0.707107 0.707107
v -1.245000 0.220000 0.805000
vt 0.765625 0.882812
vn -0.707107 -0.707107 -0.000065
v -1.245000 0.220000 0.035000
vt 0.464844 0.882812
vn -0.707107 -0.707107 -0.000065
v -1.270000 0.245000 0.805000
vt 0.765625 0.910156
vn -0.707107 -0.707107 -0.000065
v -1.270000 0.245000 0.035000
vt 0.464844 0.910156
vn -0.707107 -0.707107 -0.000065
v -1.245000 0.340000 0.035000
vt 0.464844 0.992188
vn -0.707128 0.707085 -0.000022
v -1.245000 0.340000 0.805000
vt 0.765625 0.992188
vn -0.707128 0.707085 -0.000022
v -1.270000 0.315000 0.035000
vt 0.464844 0.964844
vn -0.707128 0.707085 -0.000022
v -1.270000 0.315000 0.805000
vt 0.765625 0.964844
vn -0.707128 0.707085 -0.000022
v -1.270000 0.315000 0.035000
vt 0.464844 0.964844
vn -0.707118 0.000000 -0.707096
v -1.270000 0.245000 0.035000
vt 0.464844 0.910156
vn -0.707118 0.000000 -0.707096
v -1.245000 0.315000 0.010000
vt 0.453125 0.964844
vn -0.707118 0.000000 -0.707096
v -1.245000 0.245000 0.010000
vt 0.453125 0.910156
vn -0.707118 0.000000 -0.707096
f 3/3/3 2/2/2 1/1/1
f 4/4/4 2/2/2 3/3/3
f 7/7/7 6/6/6 5/5/5
f 8/8/8 6/6/6 7/7/7
f 11/11/11 10/10/10 9/9/9
f 12/12/12 10/10/10 11/11/11
f 15/15/15 14/14/14 13/13/13
f 16/16/16 14/14/14 15/15/15
f 19/19/19 18/18/18 17/17/17
f 20/20/20 18/18/18 19/19/19
f 23/23/23 22/22/22 21/21/21
f 26/26/26 25/25/25 24/24/24
f 29/29/29 28/28/28 27/27/27
f 32/32/32 31/31/31 30/30/30
f 35/35/35 34/34/34 33/33/33
f 38/38/38 37/37/37 36/36/36
f 41/41/41 40/40/40 39/39/39
f 44/44/44 43/43/43 42/42/42
f 47/47/47 46/46/46 45/45/45
f 48/48/48 46/46/46 47/47/47
f 51/51/51 50/50/50 49/49/49
f 52/52/52 50/50/50 51/51/51
f 55/55/55 54/54/54 53/53/53
f 56/56/56 54/54/54 55/55/55
f 59/59/59 58/58/58 57/57/57
f 60/60/60 58/58/58 59/59/59
f 63/63/63 62/62/62 61/61/61
f 64/64/64 62/62/62 63/63/63
f 67/67/67 66/66/66 65/65/65
f 68/68/68 66/66/66 67/67/67
f 71/71/71 70/70/70 69/69/69
f 72/72/72 70/70/70 71/71/71
f 75/75/75 74/74/74 73/73/73
f 76/76/76 74/74/74 75/75/75
f 79/79/79 78/78/78 77/77/77
f 80/80/80 78/78/78 79/79/79
f 83/83/83 82/82/82 81/81/81
f 84/84/84 82/82/82 83/83/83
f 87/87/87 86/86/86 85/85/85
f 88/88/88 86/86/86 87/87/87
f 91/91/91 90/90/90 89/89/89
f 92/92/92 90/90/90 91/91/91
f 95/95/95 94/94/94 93/93/93
f 96/96/96 94/94/94 95/95/95
