# Exported from Godot Engine
o frame
v -0.070000 0.670000 0.030000
vt 0.328125 0.718750
vn 0.000000 0.000000 -1.000000
v -0.070000 0.220000 0.030000
vt 0.328125 0.367188
vn 0.000000 0.000000 -1.000000
v -0.010000 0.670000 0.030000
vt 0.281250 0.718750
vn 0.000000 0.000000 -1.000000
v -0.010000 0.220000 0.030000
vt 0.281250 0.367188
vn 0.000000 0.000000 -1.000000
v -0.010000 0.670000 0.030000
vt 0.781250 0.984375
vn 1.000000 0.000000 -0.000015
v -0.010000 0.220000 0.030000
vt 0.781250 0.953125
vn 1.000000 0.000000 -0.000015
v -0.010000 0.670000 0.810000
vt 0.750000 0.984375
vn 1.000000 0.000000 -0.000015
v -0.010000 0.220000 0.810000
vt 0.750000 0.953125
vn 1.000000 0.000000 -0.000015
v -0.010000 0.670000 0.810000
vt 0.984375 0.718750
vn -0.000015 -0.000015 1.000000
v -0.010000 0.220000 0.810000
vt 0.984375 0.367188
vn -0.000015 -0.000015 1.000000
v -0.070000 0.670000 0.810000
vt 0.937500 0.718750
vn -0.000015 -0.000015 1.000000
v -0.070000 0.220000 0.810000
vt 0.937500 0.367188
vn -0.000015 -0.000015 1.000000
v -0.070000 0.670000 0.810000
vt 0.937500 0.718750
vn -1.000000 0.000000 -0.000015
v -0.070000 0.220000 0.810000
vt 0.937500 0.367188
vn -1.000000 0.000000 -0.000015
v -0.070000 0.670000 0.030000
vt 0.328125 0.718750
vn -1.000000 0.000000 -0.000015
v -0.070000 0.220000 0.030000
vt 0.328125 0.367188
vn -1.000000 0.000000 -0.000015
v -0.010000 0.670000 0.030000
vt 0.328125 0.765625
vn 0.000000 1.000000 -0.000015
v -0.010000 0.670000 0.810000
vt 0.937500 0.765625
vn 0.000000 1.000000 -0.000015
v -0.070000 0.670000 0.030000
vt 0.328125 0.718750
vn 0.000000 1.000000 -0.000015
v -0.070000 0.670000 0.810000
vt 0.937500 0.718750
vn 0.000000 1.000000 -0.000015
v -0.070000 0.120000 0.010000
vt 0.195312 0.765625
vn 0.000000 0.000000 -1.000000
v -0.070000 0.000000 0.010000
vt 0.195312 0.671875
vn 0.000000 0.000000 -1.000000
v -0.010000 0.120000 0.010000
vt 0.148438 0.765625
vn 0.000000 0.000000 -1.000000
v -0.010000 0.000000 0.010000
vt 0.148438 0.671875
vn 0.000000 0.000000 -1.000000
v -0.010000 0.120000 0.010000
vt 0.148438 0.765625
vn 1.000000 0.000000 -0.000015
v -0.010000 0.000000 0.010000
vt 0.148438 0.671875
vn 1.000000 0.000000 -0.000015
v -0.010000 0.120000 0.070000
vt 0.101562 0.765625
vn 1.000000 0.000000 -0.000015
v -0.010000 0.000000 0.070000
vt 0.101562 0.671875
vn 1.000000 0.000000 -0.000015
v -0.010000 0.120000 0.070000
vt 0.101562 0.765625
vn -0.000015 -0.000015 1.000000
v -0.010000 0.000000 0.070000
vt 0.101562 0.671875
vn -0.000015 -0.000015 1.000000
v -0.070000 0.120000 0.070000
vt 0.046875 0.765625
vn -0.000015 -0.000015 1.000000
v -0.070000 0.000000 0.070000
vt 0.046875 0.671875
vn -0.000015 -0.000015 1.000000
v -0.070000 0.120000 0.070000
vt 0.046875 0.765625
vn -1.000000 0.000000 -0.000015
v -0.070000 0.000000 0.070000
vt 0.046875 0.671875
vn -1.000000 0.000000 -0.000015
v -0.070000 0.120000 0.010000
vt 0.000000 0.765625
vn -1.000000 0.000000 -0.000015
v -0.070000 0.000000 0.010000
vt 0.000000 0.671875
vn -1.000000 0.000000 -0.000015
v -1.280000 0.220000 0.000000
vt 1.000000 0.843750
vn 0.000000 0.000000 -1.000000
v -1.280000 0.120000 0.000000
vt 1.000000 0.765625
vn 0.000000 0.000000 -1.000000
v 0.000000 0.220000 0.000000
vt 0.000000 0.843750
vn 0.000000 0.000000 -1.000000
v 0.000000 0.120000 0.000000
vt 0.000000 0.765625
vn 0.000000 0.000000 -1.000000
v 0.000000 0.220000 0.000000
vt 0.656250 1.000000
vn 1.000000 0.000000 -0.000015
v 0.000000 0.120000 0.000000
vt 0.656250 0.921875
vn 1.000000 0.000000 -0.000015
v 0.000000 0.220000 0.840000
vt 0.000000 1.000000
vn 1.000000 0.000000 -0.000015
v 0.000000 0.120000 0.840000
vt 0.000000 0.921875
vn 1.000000 0.000000 -0.000015
v 0.000000 0.220000 0.840000
vt 1.000000 0.921875
vn -0.000015 -0.000015 1.000000
v 0.000000 0.120000 0.840000
vt 1.000000 0.843750
vn -0.000015 -0.000015 1.000000
v -1.280000 0.220000 0.840000
vt 0.000000 0.921875
vn -0.000015 -0.000015 1.000000
v -1.280000 0.120000 0.840000
vt 0.000000 0.843750
vn -0.000015 -0.000015 1.000000
v -1.280000 0.220000 0.840000
vt 0.656250 1.000000
vn -1.000000 0.000000 -0.000015
v -1.280000 0.120000 0.840000
vt 0.656250 0.929688
vn -1.000000 0.000000 -0.000015
v -1.280000 0.220000 0.000000
vt 0.000000 1.000000
vn -1.000000 0.000000 -0.000015
v -1.280000 0.120000 0.000000
vt 0.000000 0.929688
vn -1.000000 0.000000 -0.000015
v 0.000000 0.120000 0.840000
vt 0.781250 0.953125
vn 0.000000 -1.000000 -0.000015
v 0.000000 0.120000 0.000000
vt 0.750000 0.953125
vn 0.000000 -1.000000 -0.000015
v -1.280000 0.120000 0.840000
vt 0.781250 0.984375
vn 0.000000 -1.000000 -0.000015
v -1.280000 0.120000 0.000000
vt 0.750000 0.984375
vn 0.000000 -1.000000 -0.000015
v 0.000000 0.220000 0.000000
vt 0.781250 0.953125
vn 0.000000 1.000000 -0.000015
v 0.000000 0.220000 0.840000
vt 0.750000 0.953125
vn 0.000000 1.000000 -0.000015
v -1.280000 0.220000 0.000000
vt 0.781250 0.984375
vn 0.000000 1.000000 -0.000015
v -1.280000 0.220000 0.840000
vt 0.750000 0.984375
vn 0.000000 1.000000 -0.000015
v -0.070000 0.120000 0.770000
vt 0.195312 0.765625
vn 0.000000 0.000000 -1.000000
v -0.070000 0.000000 0.770000
vt 0.195312 0.671875
vn 0.000000 0.000000 -1.000000
v -0.010000 0.120000 0.770000
vt 0.148438 0.765625
vn 0.000000 0.000000 -1.000000
v -0.010000 0.000000 0.770000
vt 0.148438 0.671875
vn 0.000000 0.000000 -1.000000
v -0.010000 0.120000 0.770000
vt 0.148438 0.765625
vn 1.000000 0.000000 -0.000015
v -0.010000 0.000000 0.770000
vt 0.148438 0.671875
vn 1.000000 0.000000 -0.000015
v -0.010000 0.120000 0.830000
vt 0.101562 0.765625
vn 1.000000 0.000000 -0.000015
v -0.010000 0.000000 0.830000
vt 0.101562 0.671875
vn 1.000000 0.000000 -0.000015
v -0.010000 0.120000 0.830000
vt 0.101562 0.765625
vn -0.000015 -0.000015 1.000000
v -0.010000 0.000000 0.830000
vt 0.101562 0.671875
vn -0.000015 -0.000015 1.000000
v -0.070000 0.120000 0.830000
vt 0.046875 0.765625
vn -0.000015 -0.000015 1.000000
v -0.070000 0.000000 0.830000
vt 0.046875 0.671875
vn -0.000015 -0.000015 1.000000
v -0.070000 0.120000 0.830000
vt 0.046875 0.765625
vn -1.000000 0.000000 -0.000015
v -0.070000 0.000000 0.830000
vt 0.046875 0.671875
vn -1.000000 0.000000 -0.000015
v -0.070000 0.120000 0.770000
vt 0.000000 0.765625
vn -1.000000 0.000000 -0.000015
v -0.070000 0.000000 0.770000
vt 0.000000 0.671875
vn -1.000000 0.000000 -0.000015
v -1.270000 0.120000 0.770000
vt 0.195312 0.765625
vn 0.000000 0.000000 -1.000000
v -1.270000 0.000000 0.770000
vt 0.195312 0.671875
vn 0.000000 0.000000 -1.000000
v -1.210000 0.120000 0.770000
vt 0.148438 0.765625
vn 0.000000 0.000000 -1.000000
v -1.210000 0.000000 0.770000
vt 0.148438 0.671875
vn 0.000000 0.000000 -1.000000
v -1.210000 0.120000 0.770000
vt 0.148438 0.765625
vn 1.000000 0.000000 -0.000015
v -1.210000 0.000000 0.770000
vt 0.148438 0.671875
vn 1.000000 0.000000 -0.000015
v -1.210000 0.120000 0.830000
vt 0.101562 0.765625
vn 1.000000 0.000000 -0.000015
v -1.210000 0.000000 0.830000
vt 0.101562 0.671875
vn 1.000000 0.000000 -0.000015
v -1.210000 0.120000 0.830000
vt 0.101562 0.765625
vn -0.000015 -0.000015 1.000000
v -1.210000 0.000000 0.830000
vt 0.101562 0.671875
vn -0.000015 -0.000015 1.000000
v -1.270000 0.120000 0.830000
vt 0.046875 0.765625
vn -0.000015 -0.000015 1.000000
v -1.270000 0.000000 0.830000
vt 0.046875 0.671875
vn -0.000015 -0.000015 1.000000
v -1.270000 0.120000 0.830000
vt 0.046875 0.765625
vn -1.000000 0.000000 -0.000015
v -1.270000 0.000000 0.830000
vt 0.046875 0.671875
vn -1.000000 0.000000 -0.000015
v -1.270000 0.120000 0.770000
vt 0.000000 0.765625
vn -1.000000 0.000000 -0.000015
v -1.270000 0.000000 0.770000
vt 0.000000 0.671875
vn -1.000000 0.000000 -0.000015
v -1.270000 0.120000 0.010000
vt 0.195312 0.765625
vn 0.000000 0.000000 -1.000000
v -1.270000 0.000000 0.010000
vt 0.195312 0.671875
vn 0.000000 0.000000 -1.000000
v -1.210000 0.120000 0.010000
vt 0.148438 0.765625
vn 0.000000 0.000000 -1.000000
v -1.210000 0.000000 0.010000
vt 0.148438 0.671875
vn 0.000000 0.000000 -1.000000
v -1.210000 0.120000 0.010000
vt 0.148438 0.765625
vn 1.000000 0.000000 -0.000015
v -1.210000 0.000000 0.010000
vt 0.148438 0.671875
vn 1.000000 0.000000 -0.000015
v -1.210000 0.120000 0.070000
vt 0.101562 0.765625
vn 1.000000 0.000000 -0.000015
v -1.210000 0.000000 0.070000
vt 0.101562 0.671875
vn 1.000000 0.000000 -0.000015
v -1.210000 0.120000 0.070000
vt 0.101562 0.765625
vn -0.000015 -0.000015 1.000000
v -1.210000 0.000000 0.070000
vt 0.101562 0.671875
vn -0.000015 -0.000015 1.000000
v -1.270000 0.120000 0.070000
vt 0.046875 0.765625
vn -0.000015 -0.000015 1.000000
v -1.270000 0.000000 0.070000
vt 0.046875 0.671875
vn -0.000015 -0.000015 1.000000
v -1.270000 0.120000 0.070000
vt 0.046875 0.765625
vn -1.000000 0.000000 -0.000015
v -1.270000 0.000000 0.070000
vt 0.046875 0.671875
vn -1.000000 0.000000 -0.000015
v -1.270000 0.120000 0.010000
vt 0.000000 0.765625
vn -1.000000 0.000000 -0.000015
v -1.270000 0.000000 0.010000
vt 0.000000 0.671875
vn -1.000000 0.000000 -0.000015
f 3/3/3 2/2/2 1/1/1
f 4/4/4 2/2/2 3/3/3
f 7/7/7 6/6/6 5/5/5
f 8/8/8 6/6/6 7/7/7
f 11/11/11 10/10/10 9/9/9
f 12/12/12 10/10/10 11/11/11
f 15/15/15 14/14/14 13/13/13
f 16/16/16 14/14/14 15/15/15
f 19/19/19 18/18/18 17/17/17
f 20/20/20 18/18/18 19/19/19
f 23/23/23 22/22/22 21/21/21
f 24/24/24 22/22/22 23/23/23
f 27/27/27 26/26/26 25/25/25
f 28/28/28 26/26/26 27/27/27
f 31/31/31 30/30/30 29/29/29
f 32/32/32 30/30/30 31/31/31
f 35/35/35 34/34/34 33/33/33
f 36/36/36 34/34/34 35/35/35
f 39/39/39 38/38/38 37/37/37
f 40/40/40 38/38/38 39/39/39
f 43/43/43 42/42/42 41/41/41
f 44/44/44 42/42/42 43/43/43
f 47/47/47 46/46/46 45/45/45
f 48/48/48 46/46/46 47/47/47
f 51/51/51 50/50/50 49/49/49
f 52/52/52 50/50/50 51/51/51
f 55/55/55 54/54/54 53/53/53
f 56/56/56 54/54/54 55/55/55
f 59/59/59 58/58/58 57/57/57
f 60/60/60 58/58/58 59/59/59
f 63/63/63 62/62/62 61/61/61
f 64/64/64 62/62/62 63/63/63
f 67/67/67 66/66/66 65/65/65
f 68/68/68 66/66/66 67/67/67
f 71/71/71 70/70/70 69/69/69
f 72/72/72 70/70/70 71/71/71
f 75/75/75 74/74/74 73/73/73
f 76/76/76 74/74/74 75/75/75
f 79/79/79 78/78/78 77/77/77
f 80/80/80 78/78/78 79/79/79
f 83/83/83 82/82/82 81/81/81
f 84/84/84 82/82/82 83/83/83
f 87/87/87 86/86/86 85/85/85
f 88/88/88 86/86/86 87/87/87
f 91/91/91 90/90/90 89/89/89
f 92/92/92 90/90/90 91/91/91
f 95/95/95 94/94/94 93/93/93
f 96/96/96 94/94/94 95/95/95
f 99/99/99 98/98/98 97/97/97
f 100/100/100 98/98/98 99/99/99
f 103/103/103 102/102/102 101/101/101
f 104/104/104 102/102/102 103/103/103
f 107/107/107 106/106/106 105/105/105
f 108/108/108 106/106/106 107/107/107
