# Blender 3.6.9
# www.blender.org
mtllib Lemari.mtl
o Cube.001
v -0.228045 0.000000 0.746764
v -0.228045 1.375000 0.746764
v -0.228045 0.000000 0.003236
v -0.228045 1.375000 0.003236
v -0.021955 0.000000 0.746764
v -0.021955 1.375000 0.746764
v -0.021955 0.000000 0.003236
v -0.021955 1.375000 0.003236
vn -0.0000 1.0000 -0.0000
vn -0.0000 -0.0000 1.0000
vn -1.0000 -0.0000 -0.0000
vn -0.0000 -0.0000 -1.0000
vn -0.0000 -1.0000 -0.0000
vn 1.0000 -0.0000 -0.0000
vt 0.671875 0.040541
vt 0.976562 0.040541
vt 0.671875 0.344595
vt 0.304688 0.472973
vt 0.304688 0.844595
vt 0.007812 0.472973
vt 0.343750 0.033784
vt 0.343750 0.405405
vt 0.640625 0.033784
vt 0.984375 0.472973
vt 0.679688 0.844595
vt 0.984375 0.844595
vt 0.007812 0.844595
vt 0.976562 0.344595
vt 0.312500 0.337838
vt 0.015625 0.040541
vt 0.015625 0.337838
vt 0.312500 0.040541
vt 0.640625 0.405405
vt 0.343750 0.851351
vt 0.343750 0.472973
vt 0.648438 0.851351
vt 0.679688 0.472973
vt 0.648438 0.472973
s 0
usemtl Lemari
f 2/1/1 6/2/1 4/3/1
f 5/4/2 6/5/2 1/6/2
f 1/7/3 2/8/3 3/9/3
f 7/10/4 4/11/4 8/12/4
f 1/6/2 6/5/2 2/13/2
f 4/3/1 6/2/1 8/14/1
f 7/15/5 1/16/5 3/17/5
f 5/18/5 1/16/5 7/15/5
f 3/9/3 2/8/3 4/19/3
f 6/20/6 5/21/6 8/22/6
f 3/23/4 4/11/4 7/10/4
f 8/22/6 5/21/6 7/24/6
